<svg width="39" height="60" viewBox="0 0 39 60" fill="none" xmlns="http://www.w3.org/2000/svg">
<path d="M21.2778 14.6221C39.2778 -11.3779 2.27777 10.122 5.77777 14.6221C9.27777 19.1222 5.77777 34.1221 5.77777 34.1221M5.77777 34.1221C5.77777 34.1221 17.7778 29.6221 13.2778 34.1221M5.77777 34.1221C5.77777 34.1221 -2.72221 60.6221 5.77777 56.1221M27.7778 48.1221C27.7778 48.1221 35.2778 44.1221 33.7778 48.1221C32.2778 52.1221 33.7778 56.1221 33.7778 56.1221C33.7778 56.1221 23.2778 52.6221 18.2778 56.1221C13.2778 59.6221 16.7778 43.1221 20.2778 31.1221C23.7778 19.1221 43.7778 22.1221 33.7778 31.1221" stroke="white" stroke-width="4"/>
</svg>
